<svg xmlns="http://www.w3.org/2000/svg" viewBox="0 0 51.49 18.84"><defs><style>.cls-1{font-size:10.53px;font-family:Candara-Bold, Candara;font-weight:700;}.cls-1,.cls-2{fill:#fff;}</style></defs><g id="Camada_2" data-name="Camada 2"><g id="Central"><g id="Logo"><g id="Nome"><text class="cls-1" transform="translate(0 12.74) scale(1.29 1)">vita Pure</text><path class="cls-2" d="M.65,3.34C.38,3.7.39,4,.32,4A2.55,2.55,0,0,1,.77,1.84,3.76,3.76,0,0,1,2.55.42,8.91,8.91,0,0,1,7.27.22,21.55,21.55,0,0,1,11.74,1.4C13.35,2,15.91,3.06,16,3.12l.1,0a20.33,20.33,0,0,1,4.28,2.22c-.07.09-1.43-.47-4.58-1.52A48.49,48.49,0,0,0,9.34,2,13.92,13.92,0,0,0,6,1.74c-.08,0-.5,0-1.05.09a11.51,11.51,0,0,0-2.47.52A3.64,3.64,0,0,0,.65,3.34Z"/><path class="cls-2" d="M20.05,15.27c.24-.37.21-.65.28-.65A2.5,2.5,0,0,1,20,16.77a3.69,3.69,0,0,1-1.67,1.51,8.76,8.76,0,0,1-4.7.45,21,21,0,0,1-4.55-.94c-1.64-.48-4.28-1.44-4.41-1.48l-.11,0a21.67,21.67,0,0,1-4.44-2,42.69,42.69,0,0,1,4.69,1.26A49.75,49.75,0,0,0,11.47,17a14.18,14.18,0,0,0,3.38.12c.08,0,.5,0,1-.14a12,12,0,0,0,2.43-.66A3.46,3.46,0,0,0,20.05,15.27Z"/></g></g></g></g></svg>